<svg width="24" height="24" viewBox="0 0 24 24" fill="none" xmlns="http://www.w3.org/2000/svg">
<path fill-rule="evenodd" clip-rule="evenodd" d="M9.59149 2.49976C6.74359 2.49976 4.45749 4.78622 4.45749 7.63376C4.45749 10.4821 6.74341 12.7688 9.59149 12.7688C12.4397 12.7688 14.7265 10.482 14.7265 7.63376C14.7265 4.78636 12.4395 2.49976 9.59149 2.49976ZM9.59149 3.99976C11.6111 3.99976 13.2265 5.61484 13.2265 7.63376C13.2265 9.65354 11.6113 11.2688 9.59149 11.2688C7.57195 11.2688 5.95749 9.65379 5.95749 7.63376C5.95749 5.6146 7.57207 3.99976 9.59149 3.99976ZM20.0672 7.61636C20.0672 5.38183 18.2551 3.56936 16.0202 3.56936C15.606 3.56936 15.2702 3.90514 15.2702 4.31936C15.2702 4.73357 15.606 5.06936 16.0202 5.06936C17.4266 5.06936 18.5672 6.21019 18.5672 7.61636C18.5672 9.02314 17.427 10.1634 16.0202 10.1634C15.606 10.1634 15.2702 10.4991 15.2702 10.9134C15.2702 11.3276 15.606 11.6634 16.0202 11.6634C18.2554 11.6634 20.0672 9.85157 20.0672 7.61636ZM19.2996 13.9938C18.7449 13.8708 18.1677 13.7876 17.5872 13.7481C17.1739 13.72 16.8161 14.0322 16.788 14.4455C16.7599 14.8587 17.0721 15.2165 17.4854 15.2446C17.991 15.279 18.4938 15.3515 18.9912 15.4616C19.7678 15.6163 20.2822 15.8732 20.4213 16.165C20.5261 16.3856 20.5261 16.6441 20.4209 16.8654C20.2827 17.1562 19.771 17.4126 19.0022 17.5707C18.5965 17.6542 18.3352 18.0507 18.4187 18.4565C18.5021 18.8622 18.8987 19.1234 19.3044 19.04C20.4992 18.7942 21.3733 18.3563 21.7757 17.5092C22.0745 16.8806 22.0745 16.1491 21.7757 15.5204C21.371 14.6713 20.4877 14.2301 19.2996 13.9938ZM2.00049 18.0183C2.00049 15.3937 4.75808 14.4563 9.59149 14.4563L9.91127 14.4576C14.5557 14.4981 17.1835 15.4361 17.1835 17.9983C17.1835 20.5061 14.665 21.4736 10.2236 21.5546L9.59149 21.5603C4.74715 21.5603 2.00049 20.6394 2.00049 18.0183ZM15.6835 17.9983C15.6835 16.6505 13.6129 15.9563 9.59149 15.9563C5.57414 15.9563 3.50049 16.6612 3.50049 18.0183C3.50049 19.3667 5.56916 20.0603 9.59149 20.0603C13.6091 20.0603 15.6835 19.3552 15.6835 17.9983Z" fill="#373737"/>
</svg>
