<svg width="24" height="24" viewBox="0 0 24 24" fill="none" xmlns="http://www.w3.org/2000/svg">
<path fill-rule="evenodd" clip-rule="evenodd" d="M20.7195 2.22089C21.0124 1.928 21.4873 1.928 21.7802 2.22089C22.0464 2.48716 22.0706 2.90382 21.8528 3.19743L21.7802 3.28155L12.3343 12.7274C13.0528 13.3279 13.8863 13.8237 14.819 14.2081C15.0105 14.2786 15.1625 14.2498 15.5272 14.0508L15.7277 13.9374C16.5155 13.4844 16.9647 13.3317 17.6437 13.4748C18.2634 13.596 20.5246 15.2985 21.2903 16.092C21.6943 16.5121 21.9534 16.9651 21.9992 17.5216C22.0527 18.8933 20.3906 20.8117 19.3784 21.3801C18.23 22.2083 16.7676 22.1961 15.133 21.4348C13.2186 20.6427 10.7731 18.8561 8.4447 16.617L3.28015 21.7816C2.98726 22.0744 2.51239 22.0744 2.21949 21.7816C1.95323 21.5153 1.92902 21.0986 2.14688 20.805L2.21949 20.7209L10.7032 12.2372C10.7086 12.2315 10.7141 12.2258 10.7197 12.2202C10.7251 12.2148 10.7306 12.2095 10.7361 12.2043L20.7195 2.22089ZM11.2701 13.7916L9.50561 15.5561C11.7048 17.6669 13.9996 19.3426 15.7361 20.0618C16.8743 20.5914 17.7349 20.631 18.4326 20.2097L18.57 20.1193C19.2131 19.7549 20.526 18.2395 20.5023 17.6133C20.4924 17.4943 20.3964 17.3265 20.21 17.1326C19.6524 16.5548 17.5734 14.9895 17.3452 14.9447C17.1552 14.9047 16.994 14.9491 16.6115 15.1608L16.4025 15.2796C15.588 15.7462 15.0494 15.8915 14.2742 15.6054C13.1373 15.1374 12.1327 14.5322 11.2701 13.7916ZM6.51495 2.0037C7.03674 2.04876 7.48911 2.3069 7.91259 2.71255C8.24091 3.03098 8.83721 3.74904 9.37974 4.47134L9.6631 4.85454C10.1889 5.57671 10.4701 6.03934 10.5233 6.34641C10.6564 6.97828 10.5394 7.4082 10.1704 8.08237L10.0237 8.34211C9.75895 8.80484 9.7146 8.96915 9.78344 9.15759C9.87471 9.38035 9.96529 9.58284 10.0585 9.77103C10.2424 10.1422 10.0905 10.5921 9.71932 10.776C9.34815 10.9598 8.89821 10.808 8.71435 10.4368C8.60446 10.215 8.49953 9.98038 8.38559 9.701C8.13087 9.00899 8.23506 8.49714 8.61978 7.78076L8.76282 7.5256C9.0404 7.04227 9.09999 6.86668 9.05061 6.62997L9.02924 6.59039C8.94895 6.4566 8.65105 6.00912 8.27524 5.49981L8.17974 5.37134C7.68132 4.70776 7.12691 4.04016 6.87163 3.79254C6.67575 3.60491 6.50696 3.50859 6.41393 3.50003C5.82349 3.47127 4.4661 4.59365 3.91764 5.37836L3.83399 5.50576C3.39588 6.10253 3.38364 6.9361 3.86656 8.086L3.96292 8.30533C4.48085 9.56304 5.49788 11.1126 6.8618 12.7438C7.1275 13.0616 7.08528 13.5346 6.76751 13.8003C6.44974 14.066 5.97674 14.0238 5.71105 13.706C4.35405 12.083 3.30854 10.5197 2.70925 9.18585L2.58771 8.90359C1.8145 7.21776 1.78972 5.75564 2.5882 4.67292C3.28834 3.51881 5.15512 1.93692 6.51495 2.0037Z" fill="#373737"/>
</svg>
