<svg width="24" height="24" viewBox="0 0 24 24" fill="none" xmlns="http://www.w3.org/2000/svg">
<path fill-rule="evenodd" clip-rule="evenodd" d="M14.3801 4.29791C13.5875 3.05583 11.945 2.62625 10.6303 3.35492C10.1665 3.60989 9.78208 3.99393 9.52444 4.46015L2.25267 17.1868L2.18796 17.358C1.67393 18.8448 2.37103 20.3951 3.76394 20.9625L3.98695 21.0419C4.21242 21.1118 4.44489 21.1535 4.68091 21.1667L4.76417 21.165L4.79587 21.1679H19.2779L19.4539 21.1536C20.9646 20.9865 22.0742 19.6979 21.9969 18.1954C21.9789 17.8746 21.9098 17.5637 21.7905 17.2737L14.4711 4.45083L14.3801 4.29791ZM11.3552 4.66815C11.9997 4.31095 12.8081 4.54334 13.1636 5.18598L20.4457 17.931L20.4673 18.0285C20.4802 18.0953 20.4939 18.1845 20.499 18.2759C20.5366 19.0056 19.9727 19.6305 19.2387 19.6689L4.79587 19.6679L4.76517 19.669L4.61455 19.6526C4.5156 19.6363 4.41934 19.6094 4.32708 19.5722C3.64976 19.2963 3.32261 18.5212 3.59878 17.8411L10.8321 5.19499L10.914 5.06424C11.0314 4.89785 11.1813 4.76373 11.3552 4.66815ZM11.2505 16.2696C11.2505 15.8556 11.5865 15.5136 12.0005 15.5136C12.4145 15.5136 12.7505 15.8446 12.7505 16.2586V16.2696C12.7505 16.6836 12.4145 17.0196 12.0005 17.0196C11.5865 17.0196 11.2505 16.6836 11.2505 16.2696ZM12.7332 10.1943C12.6836 9.82826 12.3698 9.54611 11.9901 9.54611C11.5759 9.54611 11.2401 9.8819 11.2401 10.2961V13.3961L11.2469 13.4979C11.2966 13.864 11.6104 14.1461 11.9901 14.1461C12.4043 14.1461 12.7401 13.8103 12.7401 13.3961V10.2961L12.7332 10.1943Z" fill="#373737"/>
</svg>
