<svg width="24" height="24" viewBox="0 0 24 24" fill="none" xmlns="http://www.w3.org/2000/svg">
<path fill-rule="evenodd" clip-rule="evenodd" d="M11.3723 3.39514V13.6193L9.73769 11.9792L9.65372 11.9064C9.36056 11.688 8.94384 11.7113 8.67703 11.977C8.38354 12.2693 8.38256 12.7442 8.67485 13.0377L11.5909 15.9657L11.5931 15.9676C11.6178 15.9922 11.6441 16.015 11.6719 16.0359L11.6751 16.0387C11.9691 16.2576 12.3872 16.2333 12.6537 15.9657L15.5697 13.0377L15.6421 12.9534C15.8594 12.6594 15.8343 12.2427 15.5675 11.977L15.4832 11.9046C15.1892 11.6873 14.7726 11.7124 14.5069 11.9792L12.8723 13.6199V3.39514L12.8654 3.29337C12.8158 2.9273 12.502 2.64514 12.1223 2.64514C11.7081 2.64514 11.3723 2.98093 11.3723 3.39514ZM17.9054 21.1172C20.2529 21.0085 22.1221 19.0714 22.1221 16.697V11.813L22.1172 11.6042C22.0083 9.25121 20.0675 7.37804 17.6881 7.37804H16.7551L16.6533 7.38489C16.2872 7.43455 16.0051 7.74835 16.0051 8.12804C16.0051 8.54226 16.3409 8.87804 16.7551 8.87804H17.6881L17.8605 8.88302C19.4011 8.97224 20.6221 10.2493 20.6221 11.813V16.697L20.6171 16.8689C20.5282 18.4047 19.2552 19.622 17.6971 19.622H6.55707L6.38463 19.6171C4.84409 19.5278 3.62207 18.2499 3.62207 16.687V11.802L3.62704 11.6303C3.71603 10.0956 4.98971 8.87804 6.54707 8.87804H7.48907L7.59084 8.8712C7.95692 8.82153 8.23907 8.50774 8.23907 8.12804C8.23907 7.71383 7.90328 7.37804 7.48907 7.37804H6.54707L6.33272 7.38314C3.98887 7.49497 2.12207 9.43081 2.12207 11.802V16.687L2.1269 16.8958C2.23592 19.2481 4.17783 21.122 6.55707 21.122H17.6971L17.9054 21.1172Z" fill="#373737"/>
</svg>
