<svg width="24" height="24" viewBox="0 0 24 24" fill="none" xmlns="http://www.w3.org/2000/svg">
<path fill-rule="evenodd" clip-rule="evenodd" d="M16.3345 2.00018H7.66549C4.26791 2.00018 2.00049 4.43278 2.00049 7.91618V16.0842C2.00049 19.5712 4.26119 22.0002 7.66549 22.0002H16.3335C19.7381 22.0002 22.0005 19.5709 22.0005 16.0842V7.91618C22.0005 4.42969 19.7383 2.00018 16.3345 2.00018ZM7.66549 3.50018H16.3345C18.885 3.50018 20.5005 5.23515 20.5005 7.91618V16.0842C20.5005 18.7653 18.8849 20.5002 16.3335 20.5002H7.66549C5.11463 20.5002 3.50049 18.7659 3.50049 16.0842V7.91618C3.50049 5.23856 5.12083 3.50018 7.66549 3.50018ZM6.32259 12.0004C6.32259 12.6604 6.85959 13.1974 7.52059 13.1974C8.18159 13.1974 8.71859 12.6604 8.71859 12.0004C8.71859 11.3404 8.18159 10.8024 7.52059 10.8024C6.85959 10.8024 6.32259 11.3404 6.32259 12.0004ZM12 13.1974C11.339 13.1974 10.802 12.6604 10.802 12.0004C10.802 11.3404 11.339 10.8024 12 10.8024C12.661 10.8024 13.198 11.3404 13.198 12.0004C13.198 12.6604 12.661 13.1974 12 13.1974ZM15.281 12.0004C15.281 12.6604 15.818 13.1974 16.479 13.1974C17.14 13.1974 17.677 12.6604 17.677 12.0004C17.677 11.3404 17.14 10.8024 16.479 10.8024C15.818 10.8024 15.281 11.3404 15.281 12.0004Z" fill="#373737"/>
</svg>
