<svg width="24" height="24" viewBox="0 0 24 24" fill="none" xmlns="http://www.w3.org/2000/svg">
<path fill-rule="evenodd" clip-rule="evenodd" d="M12 2.00018C6.47712 2.00018 2 6.47764 2 12.0002C2 17.5227 6.47712 22.0002 12 22.0002C17.5222 22.0002 22 17.5224 22 12.0002C22 6.47797 17.5222 2.00018 12 2.00018ZM12 3.50018C16.6938 3.50018 20.5 7.3064 20.5 12.0002C20.5 16.694 16.6938 20.5002 12 20.5002C7.30557 20.5002 3.5 16.6943 3.5 12.0002C3.5 7.30604 7.30557 3.50018 12 3.50018ZM6.3225 12.0004C6.3225 12.6604 6.8595 13.1974 7.5205 13.1974C8.1815 13.1974 8.7185 12.6604 8.7185 12.0004C8.7185 11.3404 8.1815 10.8024 7.5205 10.8024C6.8595 10.8024 6.3225 11.3404 6.3225 12.0004ZM12 13.1974C11.339 13.1974 10.802 12.6604 10.802 12.0004C10.802 11.3404 11.339 10.8024 12 10.8024C12.661 10.8024 13.198 11.3404 13.198 12.0004C13.198 12.6604 12.661 13.1974 12 13.1974ZM15.281 12.0004C15.281 12.6604 15.818 13.1974 16.479 13.1974C17.14 13.1974 17.677 12.6604 17.677 12.0004C17.677 11.3404 17.14 10.8024 16.479 10.8024C15.818 10.8024 15.281 11.3404 15.281 12.0004Z" fill="#373737"/>
</svg>
