<svg width="24" height="24" viewBox="0 0 24 24" fill="none" xmlns="http://www.w3.org/2000/svg">
<path fill-rule="evenodd" clip-rule="evenodd" d="M14.6065 2.01188C14.5634 2.0042 14.5191 2.00018 14.4738 2.00018C14.4285 2.00018 14.3842 2.0042 14.3411 2.01188H8.08351C5.59622 2.01188 3.49951 4.02971 3.49951 6.49088V17.2039C3.49951 19.8045 5.50411 21.8649 8.08351 21.8649H16.0725C18.5258 21.8649 20.5515 19.703 20.5515 17.2039V8.03788C20.5515 7.84427 20.4766 7.65815 20.3425 7.51848L15.2775 2.24248C15.1361 2.09516 14.9407 2.01188 14.7365 2.01188H14.6065ZM13.7238 3.51108L8.08351 3.51188C6.41205 3.51188 4.99951 4.87128 4.99951 6.49088V17.2039C4.99951 18.9851 6.3419 20.3649 8.08351 20.3649H16.0725C17.6748 20.3649 19.0515 18.8956 19.0515 17.2039L19.0509 8.98327L18.1754 8.98625C17.8417 8.98585 17.4622 8.98514 17.0402 8.98418C15.2707 8.98044 13.8265 7.59347 13.7291 5.84757L13.7238 5.65918V3.51108ZM18.23 7.48402L17.0435 7.48418C16.038 7.48206 15.2238 6.66564 15.2238 5.65918V4.35263L18.23 7.48402ZM14.2838 14.8078C14.698 14.8078 15.0338 15.1436 15.0338 15.5578C15.0338 15.9375 14.7517 16.2513 14.3856 16.3009L14.2838 16.3078H8.88681C8.4726 16.3078 8.13681 15.972 8.13681 15.5578C8.13681 15.1781 8.41897 14.8643 8.78504 14.8146L8.88681 14.8078H14.2838ZM12.9923 10.6056C12.9923 10.1914 12.6565 9.85558 12.2423 9.85558H8.88631L8.78454 9.86243C8.41847 9.91209 8.13631 10.2259 8.13631 10.6056C8.13631 11.0198 8.4721 11.3556 8.88631 11.3556H12.2423L12.3441 11.3487C12.7102 11.2991 12.9923 10.9853 12.9923 10.6056Z" fill="#373737"/>
</svg>
