<svg width="24" height="24" viewBox="0 0 24 24" fill="none" xmlns="http://www.w3.org/2000/svg">
<path fill-rule="evenodd" clip-rule="evenodd" d="M14.6065 2.01188C14.5634 2.0042 14.5191 2.00018 14.4738 2.00018C14.4285 2.00018 14.3842 2.0042 14.3411 2.01188H8.08449C5.59719 2.01188 3.50049 4.02971 3.50049 6.49088V17.2279C3.50049 19.8254 5.50133 21.8649 8.08449 21.8649H16.0725C18.5282 21.8649 20.5525 19.7229 20.5525 17.2279V8.03788C20.5525 7.84424 20.4776 7.65811 20.3435 7.51843L15.2775 2.24243C15.136 2.09514 14.9407 2.01188 14.7365 2.01188H14.6065ZM13.7238 3.51108L8.08449 3.51188C6.41302 3.51188 5.00049 4.87128 5.00049 6.49088V17.2279C5.00049 19.0033 6.33625 20.3649 8.08449 20.3649H16.0725C17.6802 20.3649 19.0525 18.9128 19.0525 17.2279L19.0522 8.98326L18.1757 8.98625C17.8422 8.98585 17.4629 8.98514 17.0412 8.98418C15.2709 8.98044 13.8265 7.59366 13.729 5.84759L13.7238 5.65918V3.51108ZM18.2312 7.48402L17.0445 7.48418C16.0381 7.48206 15.2238 6.66575 15.2238 5.65918V4.35203L18.2312 7.48402ZM10.8908 11.256V16.0136L10.8976 16.1154C10.9473 16.4814 11.2611 16.7636 11.6408 16.7636C12.055 16.7636 12.3908 16.4278 12.3908 16.0136V11.2567L13.9479 12.8204L14.0319 12.8932C14.3251 13.1117 14.7418 13.0883 15.0086 12.8226C15.3021 12.5304 15.3031 12.0555 15.0108 11.762L12.1734 8.9125C12.1471 8.88604 12.1189 8.86153 12.089 8.8392L12.0876 8.83798C11.7935 8.61899 11.3753 8.64336 11.1088 8.91107L8.27085 11.7621L8.19842 11.8463C7.98124 12.1405 8.0064 12.5571 8.27327 12.8227L8.35756 12.8951C8.65166 13.1123 9.06827 13.0872 9.33393 12.8203L10.8908 11.256Z" fill="#373737"/>
</svg>
