<svg width="24" height="24" viewBox="0 0 24 24" fill="none" xmlns="http://www.w3.org/2000/svg">
<path fill-rule="evenodd" clip-rule="evenodd" d="M14.6065 2.01188C14.5634 2.0042 14.5191 2.00018 14.4738 2.00018C14.4285 2.00018 14.3842 2.0042 14.3411 2.01188H8.08449C5.59719 2.01188 3.50049 4.02971 3.50049 6.49088V17.2279C3.50049 19.8254 5.50133 21.8649 8.08449 21.8649H16.0725C18.5282 21.8649 20.5525 19.7229 20.5525 17.2279V8.03788C20.5525 7.84424 20.4776 7.65811 20.3435 7.51843L15.2775 2.24243C15.136 2.09514 14.9407 2.01188 14.7365 2.01188H14.6065ZM13.7238 3.51108L8.08449 3.51188C6.41302 3.51188 5.00049 4.87128 5.00049 6.49088V17.2279C5.00049 19.0033 6.33625 20.3649 8.08449 20.3649H16.0725C17.6802 20.3649 19.0525 18.9128 19.0525 17.2279L19.0521 8.98326L18.1757 8.98625C17.8422 8.98585 17.4629 8.98514 17.0412 8.98418C15.2709 8.98044 13.8265 7.59366 13.729 5.84759L13.7238 5.65918V3.51108ZM18.2311 7.48402L17.0445 7.48418C16.0381 7.48206 15.2238 6.66575 15.2238 5.65918V4.35213L18.2311 7.48402ZM11.6408 8.69078C12.0205 8.69078 12.3343 8.97294 12.3839 9.33901L12.3908 9.44078V14.1966L13.9479 12.634C14.2402 12.3405 14.7151 12.3395 15.0086 12.6317C15.2754 12.8974 15.3005 13.3141 15.0833 13.6081L15.0108 13.6924L12.1729 16.5423L12.1718 16.5434C12.1717 16.5435 12.1716 16.5436 12.1715 16.5438C11.9049 16.8111 11.487 16.8352 11.1931 16.6163L11.1863 16.6104C11.1613 16.5913 11.1375 16.5708 11.1152 16.5488L11.1088 16.5433L8.27085 13.6923C7.97862 13.3987 7.97971 12.9239 8.27327 12.6316C8.54014 12.366 8.95686 12.3427 9.24998 12.5613L9.33393 12.6341L10.8908 14.1989V9.44078C10.8908 9.02657 11.2266 8.69078 11.6408 8.69078Z" fill="#373737"/>
</svg>
