<svg width="34" height="33" viewBox="0 0 34 33" fill="none" xmlns="http://www.w3.org/2000/svg">
<g clip-path="url(#clip0_151_11827)">
<path d="M0 22.5815C0.0716494 22.5718 0.138522 22.5524 0.210171 22.5524C0.940995 22.5524 1.67182 22.5476 2.40264 22.5524C2.75133 22.5524 2.75133 22.5767 2.75133 22.9256C2.75133 24.4665 2.75611 26.0075 2.76089 27.5436C2.76089 27.7278 2.75133 27.9168 2.76566 28.1009C2.77522 28.2269 2.68924 28.4013 2.88986 28.4595C2.89941 28.4643 2.90896 28.4934 2.90419 28.5031C2.81821 28.7454 3.00927 28.915 3.07615 29.1137C3.16212 29.3802 3.35797 29.6031 3.56336 29.8018C3.80219 30.0344 4.04102 30.267 4.27985 30.4996C4.30374 30.5238 4.32762 30.5723 4.35628 30.5771C4.58078 30.6207 4.74319 30.8049 4.93903 30.8679C5.1492 30.9357 5.33071 31.1441 5.59343 31.0665C5.6603 31.0472 5.75583 31.1392 5.84659 31.1635C5.93734 31.1877 6.03288 31.2022 6.12363 31.2022C7.23658 31.2071 8.34954 31.2071 9.46249 31.2071C9.54847 31.2071 9.63445 31.2071 9.74431 31.2071C9.74431 31.8128 9.74431 32.404 9.74431 33C7.51363 33 5.28772 33 3.05704 33C2.93285 32.9176 2.81343 32.8304 2.68924 32.7529C2.56982 32.685 2.42175 32.656 2.32622 32.5639C2.10171 32.3458 1.92498 32.0648 1.67659 31.8758C1.46165 31.711 1.40433 31.4639 1.24192 31.2846C1.15117 31.1828 1.00309 31.1102 0.960101 30.9987C0.878899 30.7758 0.759483 30.582 0.649621 30.3784C0.539758 30.1798 0.458556 29.9569 0.35347 29.7485C0.238831 29.5062 0.224501 29.2106 0.186288 28.9344C0.167182 28.8084 0.162405 28.7066 0 28.7357C0 26.6859 0 24.6313 0 22.5815Z" fill="white"/>
<path d="M25.459 32.9999C25.459 32.4136 25.459 31.8272 25.459 31.207C25.5688 31.207 25.6548 31.207 25.736 31.207C26.3904 31.207 27.04 31.2118 27.6944 31.2021C27.876 31.2021 28.0766 31.27 28.2199 31.0761C28.2438 31.0422 28.3393 31.0519 28.4062 31.0616C28.6975 31.0907 28.922 30.9405 29.1513 30.7854C29.2898 30.6933 29.4713 30.6643 29.6146 30.577C29.7675 30.485 29.906 30.359 30.0302 30.233C30.2786 29.9907 30.5222 29.7484 30.7515 29.4867C30.8422 29.3801 30.9043 29.2347 30.9425 29.0991C30.9712 28.9924 31.0285 28.9198 31.0715 28.8374C31.1718 28.629 31.2387 28.3819 31.2435 28.1493C31.2578 26.4145 31.253 24.6797 31.253 22.9449C31.253 22.8237 31.253 22.7074 31.253 22.5669C32.1749 22.5669 33.0777 22.5669 33.99 22.5669C33.9948 22.659 34.0044 22.7365 34.0044 22.814C34.0044 24.67 34.0091 26.5259 33.9996 28.3819C33.9996 28.503 33.9136 28.6193 33.8754 28.7405C33.8515 28.8131 33.8515 28.8955 33.8372 28.9731C33.8181 29.1184 33.9088 29.3026 33.7034 29.3898C33.6939 29.3946 33.6939 29.4189 33.6891 29.4334C33.6366 29.6418 33.6031 29.855 33.5219 30.0488C33.4646 30.1942 33.3452 30.3105 33.264 30.4462C33.1971 30.5576 33.0968 30.6836 33.1016 30.7999C33.1111 31.0907 32.815 31.1391 32.729 31.3475C32.6669 31.488 32.5762 31.6237 32.4711 31.7352C32.2131 32.0114 31.9743 32.3361 31.659 32.5154C31.4345 32.6413 31.296 32.9369 30.9855 32.9079C30.976 32.9079 30.9664 32.9612 30.9521 32.9854C29.1227 32.9999 27.2884 32.9999 25.459 32.9999Z" fill="white"/>
<path d="M34.0002 10.4185C33.9285 10.4282 33.8617 10.4476 33.79 10.4476C33.0592 10.4476 32.3284 10.4524 31.5975 10.4476C31.2488 10.4476 31.2488 10.4233 31.2488 10.0744C31.2488 8.53348 31.2441 6.99251 31.2393 5.45639C31.2393 5.27225 31.2488 5.08326 31.2345 4.89912C31.225 4.77313 31.3109 4.59868 31.1103 4.54053C31.1008 4.53568 31.0912 4.50661 31.096 4.49692C31.182 4.25463 30.9909 4.08502 30.924 3.88634C30.838 3.61982 30.6422 3.39692 30.4368 3.19824C30.198 2.96564 29.9591 2.73304 29.7203 2.50044C29.6964 2.47621 29.6725 2.42775 29.6439 2.42291C29.4194 2.3793 29.257 2.19515 29.0611 2.13216C28.851 2.06432 28.6695 1.85595 28.4067 1.93348C28.3399 1.95286 28.2443 1.86079 28.1536 1.83656C28.0628 1.81233 27.9673 1.7978 27.8765 1.7978C26.7636 1.79295 25.6506 1.79295 24.5377 1.79295C24.4517 1.79295 24.3657 1.79295 24.2559 1.79295C24.2559 1.18722 24.2559 0.596035 24.2559 0C26.4865 0 28.7124 0 30.9431 0C31.0673 0.0823789 31.1867 0.169604 31.3109 0.247137C31.4303 0.314978 31.5784 0.344053 31.674 0.436123C31.8985 0.654185 32.0752 0.935242 32.3236 1.12423C32.5385 1.28899 32.5958 1.53612 32.7582 1.71542C32.849 1.81718 32.9971 1.88987 33.0401 2.00132C33.1213 2.22423 33.2407 2.41806 33.3506 2.62159C33.4604 2.82026 33.5416 3.04317 33.6467 3.25154C33.7613 3.49383 33.7757 3.78943 33.8139 4.06564C33.833 4.19163 33.8378 4.29339 34.0002 4.26432C34.0002 6.3141 34.0002 8.36872 34.0002 10.4185Z" fill="white"/>
<path d="M8.5405 0C8.5405 0.586344 8.5405 1.17269 8.5405 1.79295C8.43063 1.79295 8.34465 1.79295 8.26345 1.79295C7.60905 1.79295 6.95943 1.78811 6.30504 1.7978C6.12352 1.7978 5.92291 1.72996 5.77961 1.92379C5.75572 1.95771 5.66019 1.94802 5.59332 1.93833C5.30194 1.90925 5.07744 2.05947 4.84817 2.21454C4.70964 2.30661 4.52813 2.33568 4.38483 2.42291C4.23198 2.51498 4.09346 2.64097 3.96927 2.76696C3.72088 3.00441 3.4725 3.2467 3.248 3.50837C3.15724 3.61498 3.09515 3.76035 3.05693 3.89604C3.02827 4.00264 2.97095 4.07533 2.92796 4.15771C2.82765 4.36608 2.76078 4.61322 2.75601 4.84582C2.74168 6.58062 2.74645 8.31542 2.74645 10.0502C2.74645 10.1714 2.74645 10.2877 2.74645 10.4282C1.82456 10.4282 0.921782 10.4282 0.00944706 10.4282C0.00467043 10.3361 -0.00488281 10.2586 -0.00488281 10.1811C-0.00010619 8.32511 -0.00010619 6.46916 0.00467043 4.61322C0.00467043 4.49207 0.0906496 4.37577 0.128863 4.25463C0.152746 4.18194 0.152746 4.09956 0.167076 4.02203C0.186182 3.87665 0.0954263 3.69251 0.300821 3.60529C0.310374 3.60044 0.310374 3.57621 0.315151 3.56167C0.367694 3.3533 0.40113 3.14009 0.482333 2.94626C0.539652 2.80088 0.659068 2.68458 0.74027 2.5489C0.807143 2.43744 0.907452 2.31145 0.902676 2.19515C0.893122 1.90441 1.18927 1.85595 1.27525 1.64758C1.33735 1.50705 1.4281 1.37137 1.53319 1.25991C1.79113 0.983701 2.02996 0.659031 2.34522 0.479736C2.56972 0.353745 2.70824 0.0581498 3.01872 0.0872247C3.02827 0.0872247 3.03783 0.0339207 3.05216 0.00969163C4.87683 0 6.71105 0 8.5405 0Z" fill="white"/>
<path d="M7.35156 26.245C7.35156 23.9384 7.35156 21.6366 7.35156 19.3203C9.67778 19.3203 11.9944 19.3203 14.3207 19.3203C14.3207 21.6318 14.3207 23.9287 14.3207 26.245C11.9992 26.245 9.68255 26.245 7.35156 26.245ZM12.6488 24.7089C12.6488 23.4635 12.6488 22.2423 12.6488 21.0163C11.4356 21.0163 10.2366 21.0163 9.02338 21.0163C9.02338 22.2569 9.02338 23.478 9.02338 24.7089C10.2319 24.7089 11.4308 24.7089 12.6488 24.7089Z" fill="white"/>
<path d="M19.6895 13.898C19.6895 11.5138 19.6895 9.16847 19.6895 6.80371C21.9727 6.80371 24.2511 6.80371 26.5344 6.80371C26.5344 7.51605 26.5344 8.22354 26.5344 8.93102C26.5344 10.5301 26.5344 12.1244 26.5487 13.7235C26.5487 13.9319 26.4293 13.898 26.3194 13.898C25.3402 13.898 24.361 13.898 23.3866 13.898C22.2497 13.898 21.1129 13.898 19.9761 13.898C19.8805 13.898 19.7945 13.898 19.6895 13.898ZM25.0011 8.50459C24.9628 8.49005 24.9485 8.48036 24.9342 8.48036C23.783 8.48036 22.6271 8.47552 21.4759 8.48521C21.4138 8.48521 21.304 8.58697 21.304 8.64512C21.2896 9.10063 21.2944 9.55129 21.2944 10.0068C21.2944 10.6464 21.2992 11.2861 21.2944 11.9257C21.2944 12.1244 21.3469 12.2116 21.5667 12.2068C22.6414 12.1971 23.7161 12.2019 24.7861 12.2019C24.853 12.2019 24.9246 12.1923 25.0011 12.1826C25.0011 10.9517 25.0011 9.73543 25.0011 8.50459Z" fill="white"/>
<path d="M14.3152 13.8883C11.9889 13.8883 9.67705 13.8883 7.36517 13.8883C7.57534 13.3504 7.45115 12.8028 7.47026 12.2649C7.48936 11.7174 7.47503 11.1698 7.47503 10.6174C7.47503 10.0601 7.47503 9.50283 7.47503 8.94556C7.47503 8.52398 7.48936 8.10724 7.47026 7.68565C7.45593 7.3949 7.59445 7.07992 7.27441 6.80371C9.66273 6.80371 11.9794 6.80371 14.3104 6.80371C14.3152 9.15393 14.3152 11.5042 14.3152 13.8883ZM9.02266 12.1826C9.07042 12.1923 9.09908 12.2019 9.13252 12.2019C10.2837 12.2019 11.4396 12.2019 12.5908 12.2068C12.7771 12.2068 12.8105 12.1196 12.8105 11.9548C12.8057 10.9081 12.8105 9.85657 12.8105 8.80988C12.8105 8.70812 12.7962 8.60635 12.7914 8.49975C11.5208 8.49975 10.2741 8.49975 9.02266 8.49975C9.02266 9.73058 9.02266 10.9517 9.02266 12.1826Z" fill="white"/>
<path d="M17.8595 26.2497C17.2768 26.2497 16.7466 26.2497 16.1973 26.2497C16.1973 24.5585 16.1973 22.877 16.1973 21.1616C16.6797 21.1616 17.1526 21.1713 17.6255 21.1568C17.7258 21.1519 17.8356 21.0889 17.9216 21.0211C17.9694 20.9823 17.9933 20.8854 17.9933 20.8127C17.9981 20.362 17.9885 19.9065 18.0028 19.4559C18.0076 19.233 17.9312 19.1361 17.7019 19.1409C17.2577 19.1506 16.8134 19.1457 16.331 19.1457C16.331 18.8211 16.331 18.5109 16.331 18.2008C16.331 17.5805 16.331 17.5805 16.9281 17.5805C17.1335 17.5805 17.3437 17.5805 17.549 17.5805C17.9025 17.5805 18.0028 17.4788 17.9981 17.1202C17.9981 16.6792 17.9981 16.2334 17.9981 15.7876C18.5521 15.7876 19.0919 15.7876 19.6126 15.7876C19.5887 15.9427 19.5505 16.0687 19.5505 16.1946C19.5409 16.5968 19.5457 16.9991 19.5457 17.4352C20.1428 17.4352 20.7303 17.4352 21.3321 17.4352C21.3321 18.0215 21.3321 18.5691 21.3321 19.1457C20.8401 19.1457 20.3577 19.1506 19.8753 19.1409C19.646 19.1361 19.56 19.2717 19.56 19.4607C19.5505 20.4202 19.5505 21.3797 19.56 22.344C19.56 22.4457 19.6364 22.5524 19.689 22.6929C19.0776 22.6929 18.4853 22.6929 17.8643 22.6929C17.8595 23.8946 17.8595 25.0673 17.8595 26.2497Z" fill="white"/>
<path d="M24.8476 20.9774C24.8476 21.6412 24.8476 22.2373 24.8476 22.8478C23.7251 22.8478 22.6265 22.8478 21.5088 22.8478C21.5088 22.2954 21.5088 21.7478 21.5088 21.1712C22.0581 21.1712 22.6026 21.1712 23.1711 21.1712C23.1711 19.9743 23.1711 18.8113 23.1711 17.6289C23.7347 17.6289 24.2697 17.6289 24.8429 17.6289C24.8429 18.1813 24.8429 18.7289 24.8429 19.3056C25.3444 19.3056 25.8125 19.3056 26.2806 19.3056C26.3857 19.3056 26.4908 19.2959 26.5911 19.3153C26.6198 19.3201 26.6341 19.4025 26.6532 19.4461C26.4717 19.5091 26.5338 19.669 26.5338 19.7901C26.529 20.1681 26.5338 20.5412 26.5338 20.9725C26.0131 20.9774 25.4495 20.9774 24.8476 20.9774Z" fill="white"/>
<path d="M17.8313 15.5841C17.2868 15.5841 16.7566 15.5841 16.1977 15.5841C16.1929 15.4969 16.1786 15.4145 16.1786 15.3321C16.1786 13.7524 16.1786 12.1727 16.1738 10.5881C16.1738 10.4088 16.2168 10.3264 16.4127 10.3313C16.8808 10.3458 17.3489 10.3361 17.8313 10.3361C17.8313 12.1 17.8313 13.8396 17.8313 15.5841Z" fill="white"/>
<path d="M19.6895 26.2448C19.6895 25.1158 19.6895 24.0061 19.6895 22.8818C20.2388 22.8818 20.7737 22.8818 21.3422 22.8818C21.3422 23.4827 21.3422 24.0836 21.3422 24.7136C21.9631 24.7136 22.5554 24.7136 23.1573 24.7136C23.1573 25.2369 23.1573 25.736 23.1573 26.2497C22.0061 26.2448 20.8597 26.2448 19.6895 26.2448Z" fill="white"/>
<path d="M12.5101 17.4351C11.9465 17.4351 11.4067 17.4351 10.8574 17.4351C10.8574 16.8826 10.8574 16.3351 10.8574 15.7729C11.402 15.7729 11.9513 15.7729 12.5101 15.7729C12.5101 16.3254 12.5101 16.8681 12.5101 17.4351Z" fill="white"/>
<path d="M25.0195 24.728C25.5784 24.728 26.1134 24.728 26.6675 24.728C26.6675 25.2853 26.6675 25.828 26.6675 26.395C26.1229 26.395 25.5784 26.395 25.0195 26.395C25.0195 25.8426 25.0195 25.2998 25.0195 24.728Z" fill="white"/>
<path d="M16.1924 8.46094C16.1924 7.90367 16.1924 7.36094 16.1924 6.79883C16.7465 6.79883 17.2815 6.79883 17.8355 6.79883C17.8355 7.35125 17.8355 7.89398 17.8355 8.46094C17.2958 8.46094 16.7608 8.46094 16.1924 8.46094Z" fill="white"/>
<path d="M14.3535 15.7681C14.8981 15.7681 15.4426 15.7681 16.0158 15.7681C16.0158 16.3108 16.0158 16.8535 16.0158 17.4205C15.476 17.4205 14.9172 17.4205 14.3535 17.4205C14.3535 16.8729 14.3535 16.3302 14.3535 15.7681Z" fill="white"/>
<path d="M23.014 17.4354C22.5125 17.4354 22.0205 17.4354 21.4903 17.4354C21.4903 17.0089 21.4951 16.5873 21.4855 16.1609C21.4855 16.0495 21.4425 15.938 21.4043 15.7684C21.9632 15.7296 22.5555 15.7636 23.1764 15.749C22.9089 16.3063 23.1287 16.8733 23.014 17.4354Z" fill="white"/>
<path d="M26.5528 17.4351C26.0035 17.4351 25.5211 17.4351 24.9909 17.4351C24.9861 17.3092 24.9717 17.1832 24.9717 17.0572C24.967 16.7325 24.9813 16.4127 24.967 16.0929C24.9622 15.9959 24.8953 15.899 24.8428 15.7537C25.1485 15.7537 25.4207 15.7537 25.6978 15.7537C25.9271 15.7537 26.1611 15.744 26.3904 15.7585C26.4477 15.7633 26.548 15.8312 26.548 15.87C26.5528 16.3836 26.5528 16.8973 26.5528 17.4351Z" fill="white"/>
<path d="M7.40332 15.7827C7.9383 15.7827 8.49239 15.7827 9.03215 15.7827C9.03215 16.3351 9.03215 16.873 9.03215 17.4254C8.5115 17.4254 8.01473 17.4254 7.47975 17.4254C7.47975 17.0039 7.48452 16.5774 7.47497 16.1558C7.47497 16.0492 7.43198 15.9378 7.40332 15.7827Z" fill="white"/>
</g>
<defs>
<clipPath id="clip0_151_11827">
<rect width="34" height="33" fill="white"/>
</clipPath>
</defs>
</svg>
