<svg width="24" height="24" viewBox="0 0 24 24" fill="none" xmlns="http://www.w3.org/2000/svg">
<path fill-rule="evenodd" clip-rule="evenodd" d="M21.7048 4.59148C22.0164 3.18582 20.7092 1.91742 19.2939 2.32702L3.63738 6.88275L3.48628 6.93298C2.0167 7.48605 1.79121 9.5328 3.16768 10.3802L9.64322 14.366L13.539 20.8201L13.6265 20.9534C14.5398 22.2329 16.562 21.9229 17.0231 20.372L21.6682 4.73245L21.7048 4.59148ZM19.7849 3.75317C20.0737 3.72216 20.3204 4.00306 20.2305 4.30467L15.5852 19.9447L15.5547 20.0214C15.4096 20.3069 14.9988 20.3359 14.8232 20.045L11.1352 13.936L16.3877 8.64969L16.46 8.56533C16.6769 8.27099 16.6513 7.85441 16.3842 7.58904L16.2998 7.5167C16.0055 7.29982 15.5889 7.32541 15.3235 7.59257L10.0782 12.872L3.95398 9.10278L3.88786 9.05312C3.65003 8.83646 3.73008 8.41775 4.05598 8.32316L19.7119 3.76759L19.7849 3.75317Z" fill="#373737"/>
</svg>
