<svg width="11" height="12" viewBox="0 0 11 12" fill="none" xmlns="http://www.w3.org/2000/svg">
<path fill-rule="evenodd" clip-rule="evenodd" d="M4.96563 0.613986C5.1635 0.10263 5.83615 0.10263 6.03402 0.613986L7.07624 3.3077C7.1603 3.52507 7.35753 3.66667 7.5762 3.66667H10.3169C10.8209 3.66667 11.0732 4.32282 10.7169 4.70656L8.50023 7.09375C8.36112 7.24355 8.30842 7.46277 8.36242 7.66647L9.2415 10.9799C9.38991 11.5393 8.81065 11.9947 8.36107 11.672L5.80029 9.83343C5.61834 9.70283 5.38131 9.70283 5.19936 9.83349L2.64283 11.669C2.19183 11.9927 1.61065 11.5358 1.75956 10.9746L2.63722 7.66647C2.69126 7.46277 2.63851 7.24355 2.49941 7.09375L0.293698 4.71836C-0.0666778 4.33026 0.188556 3.66667 0.69821 3.66667H3.42344C3.64211 3.66667 3.83933 3.52507 3.92344 3.3077L4.96563 0.613986Z" fill="#FFE500"/>
</svg>
