<svg width="44" height="42" viewBox="0 0 44 42" fill="none" xmlns="http://www.w3.org/2000/svg">
<path fill-rule="evenodd" clip-rule="evenodd" d="M19.7968 1.39474C20.606 -0.464912 23.3569 -0.464912 24.1662 1.39474L28.4285 11.191C28.7723 11.9815 29.5789 12.4964 30.4732 12.4964H41.682C43.7431 12.4964 44.7752 14.8827 43.3177 16.2782L34.2522 24.9597C33.6834 25.5045 33.4678 26.3017 33.6887 27.0425L37.2838 39.0923C37.8908 41.127 35.5218 42.7832 33.6831 41.6094L23.2103 34.9231C22.4662 34.4481 21.4968 34.4481 20.7527 34.9233L10.2972 41.5984C8.45275 42.7757 6.07586 41.1142 6.68486 39.0732L10.2742 27.0425C10.4953 26.3017 10.2795 25.5045 9.71066 24.9597L0.689928 16.3211C-0.783906 14.9097 0.259923 12.4964 2.34426 12.4964H13.4897C14.384 12.4964 15.1905 11.9815 15.5345 11.191L19.7968 1.39474Z" fill="#FFE500"/>
</svg>
