<svg width="24" height="24" viewBox="0 0 24 24" fill="none" xmlns="http://www.w3.org/2000/svg">
<path fill-rule="evenodd" clip-rule="evenodd" d="M16.3345 2.00018H7.66549C4.26791 2.00018 2.00049 4.43278 2.00049 7.91618V16.0842C2.00049 19.5709 4.26186 22.0002 7.66549 22.0002H16.3335C19.7381 22.0002 22.0005 19.5709 22.0005 16.0842V7.91618C22.0005 4.42969 19.7383 2.00018 16.3345 2.00018ZM7.66549 3.50018H16.3345C18.885 3.50018 20.5005 5.23515 20.5005 7.91618V16.0842C20.5005 18.7653 18.8849 20.5002 16.3335 20.5002H7.66549C5.11525 20.5002 3.50049 18.7655 3.50049 16.0842V7.91618C3.50049 5.23856 5.12083 3.50018 7.66549 3.50018ZM16.0903 9.09685C15.7974 8.80396 15.3226 8.80396 15.0297 9.09685L10.8131 13.312L8.97021 11.4697L8.88607 11.3971C8.59241 11.1793 8.17576 11.2036 7.90955 11.47C7.61671 11.7629 7.61681 12.2378 7.90977 12.5306L10.2838 14.9036L10.3679 14.9762C10.6615 15.194 11.0781 15.1697 11.3443 14.9035L16.0903 10.1575L16.1629 10.0734C16.3808 9.77978 16.3566 9.36312 16.0903 9.09685Z" fill="#373737"/>
</svg>
