<svg width="24" height="24" viewBox="0 0 24 24" fill="none" xmlns="http://www.w3.org/2000/svg">
<path fill-rule="evenodd" clip-rule="evenodd" d="M17.8565 2.99982H6.14449C3.85627 2.99982 2.00149 4.8546 2.00149 7.14282L2.00049 9.93255C2.00034 10.3469 2.33617 10.6828 2.75049 10.6828C3.60226 10.6828 4.23949 11.2856 4.23949 12.0848C4.23949 12.9096 3.57527 13.5738 2.75049 13.5738C2.33627 13.5738 2.00049 13.9096 2.00049 14.3238V17.0238C2.00049 19.3122 3.8544 21.1668 6.14249 21.1668H17.8575C20.1464 21.1668 22.0005 19.3123 22.0005 17.0238V14.3238C22.0005 13.9096 21.6647 13.5738 21.2505 13.5738C20.4248 13.5738 19.7605 12.9097 19.7605 12.0848C19.7605 11.3079 20.3486 10.6744 21.1065 10.6026L21.2505 10.5958C21.6649 10.5958 22.0008 10.2597 22.0005 9.84526L21.9985 7.14226C21.9985 4.85448 20.1446 2.99982 17.8565 2.99982ZM17.8565 4.49982L18.0236 4.50501C19.4052 4.59122 20.4985 5.73893 20.4985 7.14282L20.5002 9.19102L20.4005 9.21773C19.1617 9.58274 18.2605 10.7261 18.2605 12.0848L18.2656 12.2607C18.3395 13.541 19.2158 14.6026 20.4006 14.9518L20.5002 14.977L20.5005 17.0238C20.5005 18.484 19.3179 19.6668 17.8575 19.6668H6.14249L5.97536 19.6616C4.59375 19.5754 3.50049 18.4277 3.50049 17.0238L3.50019 14.977L3.59997 14.9518C4.83817 14.5866 5.73949 13.4428 5.73949 12.0848L5.73446 11.9099C5.66098 10.6388 4.79024 9.62855 3.6032 9.29797L3.50019 9.27202L3.50149 7.14309C3.50149 5.68303 4.6847 4.49982 6.14449 4.49982H17.8565ZM10.4312 9.87802L8.877 10.1041L8.76644 10.1267C8.05166 10.3144 7.78938 11.2258 8.33779 11.7617L9.46319 12.858L9.19781 14.4084L9.18517 14.5154C9.13728 15.2554 9.92728 15.7887 10.6068 15.4343L11.9992 14.702L13.3909 15.4331L13.4889 15.4779C14.1788 15.7503 14.932 15.1665 14.8022 14.4087L14.5352 12.858L15.662 11.7628L15.7384 11.6796C16.2077 11.1079 15.8832 10.2168 15.126 10.1044L13.5682 9.87802L12.8715 8.46727C12.5169 7.74503 11.4874 7.74503 11.1294 8.46554L10.4312 9.87802ZM11.9992 10.09L12.3975 10.8954L12.4504 10.9859C12.5677 11.158 12.7527 11.2751 12.9621 11.3055L13.8472 11.434L13.207 12.0588L13.137 12.1371C13.0092 12.3021 12.955 12.5145 12.9908 12.7233L13.1422 13.608L12.3491 13.1905L12.253 13.1483C12.0568 13.0779 11.8382 13.092 11.6509 13.1905L10.8572 13.607L11.0092 12.7233L11.0197 12.6188C11.0259 12.4103 10.9449 12.2067 10.7932 12.059L10.1522 11.434L11.038 11.3055C11.2822 11.27 11.4932 11.1166 11.6025 10.8954L11.9992 10.09Z" fill="#373737"/>
</svg>
