<svg width="24" height="24" viewBox="0 0 24 24" fill="none" xmlns="http://www.w3.org/2000/svg">
<path fill-rule="evenodd" clip-rule="evenodd" d="M12.573 4.49982H6.304C3.73889 4.49982 2 6.21891 2 8.68782V15.7028C2 18.1717 3.73889 19.8908 6.304 19.8908H12.573C14.9912 19.8908 16.6808 18.3553 16.861 16.1067L19.5079 17.1886L19.6405 17.237C20.7923 17.6087 21.9997 16.7526 21.9997 15.5153V8.87632L21.9944 8.7353C21.9034 7.52863 20.6537 6.73455 19.5083 7.2019L16.8611 8.28392C16.6814 6.03369 14.9951 4.49982 12.573 4.49982ZM15.377 9.36729C15.3763 9.38542 15.3763 9.40363 15.377 9.42187V14.9688C15.3763 14.987 15.3763 15.0052 15.377 15.0233V15.7028C15.377 17.3367 14.3092 18.3908 12.573 18.3908H6.304C4.5635 18.3908 3.5 17.3394 3.5 15.7028V8.68782C3.5 7.0512 4.5635 5.99982 6.304 5.99982H12.573C14.3129 5.99982 15.377 7.0516 15.377 8.68782V9.36729ZM16.877 14.4928V9.89788L20.0755 8.59056L20.1433 8.57141C20.3243 8.54203 20.4997 8.68152 20.4997 8.87632V15.5153L20.4918 15.5854C20.4507 15.7642 20.2556 15.8736 20.0751 15.7999L16.877 14.4928Z" fill="#373737"/>
</svg>
