<svg width="24" height="24" viewBox="0 0 24 24" fill="none" xmlns="http://www.w3.org/2000/svg">
<path fill-rule="evenodd" clip-rule="evenodd" d="M21.5262 2.76374C21.2333 2.47084 20.7584 2.47084 20.4655 2.76374L15.5768 7.65244C15.5696 7.54243 15.561 7.44523 15.5509 7.35306L15.491 6.90569L15.3892 5.99709C15.3385 5.56347 15.2888 5.26463 15.2102 4.96138C14.8564 3.77857 13.9041 3.00357 12.8104 3.0372L12.6553 3.04339C12.1719 3.09036 11.5404 3.38606 11.1184 3.74485L7.6232 6.60306L5.77855 6.60402L5.60132 6.60981C4.31712 6.69425 3.37942 7.69435 3.19338 9.02932C2.99856 10.5987 2.99231 13.2084 3.19346 14.6433C3.37409 16.1391 4.36345 17.1326 5.77855 17.1326H6.09666L3.31788 19.9114L3.24526 19.9955C3.02741 20.2891 3.05162 20.7058 3.31788 20.972C3.61078 21.2649 4.08565 21.2649 4.37854 20.972L21.5262 3.8244L21.5988 3.74028C21.8167 3.44667 21.7925 3.03 21.5262 2.76374ZM7.59666 15.6326L14.1123 9.117L14.0987 8.17097C14.0904 7.87962 14.0784 7.68888 14.0608 7.52611L13.9751 6.86657L13.9235 6.38652C13.8703 5.89243 13.8264 5.60101 13.7658 5.36482C13.6051 4.82857 13.232 4.52495 12.8172 4.53667C12.7106 4.53436 12.3961 4.66686 12.1698 4.82683L12.0791 4.89675L8.3658 7.93452C8.25861 8.02221 8.12979 8.07808 7.99391 8.09692L7.89091 8.10402H5.77855C5.20519 8.10402 4.77625 8.5387 4.68049 9.2252C4.50276 10.6576 4.49682 13.1359 4.68078 14.4492C4.77025 15.1895 5.11471 15.5788 5.6589 15.6274L5.77855 15.6326H7.59666ZM14.8708 13.4416C15.2849 13.4475 15.6159 13.788 15.61 14.2022L15.5934 15.0253C15.5728 15.786 15.5405 16.3611 15.4968 16.7704L15.3829 17.8277C15.3373 18.2105 15.2889 18.4776 15.2027 18.8006C14.8566 19.9571 13.9045 20.7316 12.8521 20.6981C12.3754 20.7099 11.8049 20.4946 11.3663 20.1775L11.2085 20.054L9.81188 18.9148C9.49091 18.6529 9.44298 18.1805 9.70481 17.8595C9.94284 17.5677 10.3549 17.5016 10.669 17.6887L10.7601 17.7524L12.1673 18.9006C12.3687 19.0712 12.681 19.2018 12.8565 19.1987C13.2325 19.2102 13.6051 18.9072 13.7594 18.3929L13.8137 18.1638C13.8377 18.0476 13.8579 17.9249 13.8773 17.7786L13.993 16.7175C14.0517 16.2443 14.0926 15.4109 14.1102 14.1808C14.1161 13.7666 14.4566 13.4356 14.8708 13.4416Z" fill="#373737"/>
</svg>
