<svg width="20" height="20" viewBox="0 0 20 20" fill="none" xmlns="http://www.w3.org/2000/svg">
<g clip-path="url(#clip0_222_10002)">
<path d="M0 20C0.391236 18.5514 0.704225 17.2118 1.11111 15.919C1.3302 15.2336 1.28325 14.6729 0.970266 14.0031C-0.798122 10.2181 0.062598 5.77881 3.08294 2.81931C6.00939 -0.0467334 10.5008 -0.809973 14.241 0.918999C18.0125 2.67912 20.2973 6.58878 19.9687 10.7165C19.421 17.4922 12.2535 21.7134 5.97809 18.9875C5.52426 18.785 4.91393 18.7539 4.42879 18.8629C3.00469 19.1745 1.61189 19.5794 0 20ZM2.37872 17.6324C3.14554 17.4455 3.74022 17.3364 4.3036 17.1495C5.05477 16.8847 5.68075 16.9626 6.43192 17.3209C9.45227 18.7227 12.3787 18.4735 15.0391 16.4486C17.6213 14.486 18.7011 11.7913 18.1847 8.62928C17.6213 5.15576 15.5086 2.83489 12.097 1.96261C8.65415 1.09034 5.64945 2.1028 3.48983 4.92211C1.2989 7.77258 1.20501 10.8723 2.8482 14.0498C3.03599 14.4081 3.06729 14.9221 3.00469 15.3427C2.8795 16.0748 2.62911 16.7757 2.37872 17.6324Z" fill="#979797"/>
<path d="M13.0048 14.7352C10.407 14.4081 8.45084 13.3801 6.99544 11.5576C6.24427 10.6231 5.60264 9.54829 5.11751 8.45795C4.67932 7.49222 5.02361 6.51091 5.75913 5.73209C6.41641 5.01558 7.27713 5.17134 7.66837 6.05919C7.79356 6.33957 7.88746 6.65109 8.04396 6.91589C8.41954 7.60125 8.43519 8.20873 7.80921 8.80063C7.66837 8.94081 7.65272 9.39253 7.76226 9.59502C8.48214 10.8255 9.53065 11.6822 10.8296 12.2586C11.3616 12.4922 11.659 12.2118 11.8468 11.8536C12.3006 11.0436 12.864 11.028 13.5682 11.4798C13.756 11.6044 13.9907 11.6822 14.1942 11.7757C15.2271 12.2741 15.3679 13.271 14.4289 13.972C13.9751 14.3614 13.3648 14.5483 13.0048 14.7352Z" fill="#979797"/>
</g>
<defs>
<clipPath id="clip0_222_10002">
<rect width="20" height="20" fill="white"/>
</clipPath>
</defs>
</svg>
